<svg version="1.0" xmlns="http://www.w3.org/2000/svg" width="700.000000pt" height="276.000000pt"
     viewBox="0 0 700.000000 276.000000" preserveAspectRatio="xMidYMid meet">
    <metadata>
        Created by potrace 1.12, written by Peter Selinger 2001-2015
    </metadata>
    <g transform="translate(0.000000,276.000000) scale(0.100000,-0.100000)" fill="#ffffff" stroke="none">
        <path d="M2420 1905 l0 -855 988 2 987 3 3 853 2 852 -155 0 -155 0 0 -720 0
-720 -265 0 -265 0 0 720 0 720 -155 0 -155 0 0 -717 c1 -437 -3 -719 -9 -722
-5 -3 -124 -5 -265 -3 l-256 3 0 719 0 720 -150 0 -150 0 0 -855z"></path>
        <path d="M6284 711 c-12 -5 -32 -24 -45 -43 -22 -31 -24 -42 -24 -169 0 -133
1 -136 28 -172 27 -35 31 -37 86 -37 69 0 93 19 116 96 30 98 11 268 -35 309
-22 20 -95 29 -126 16z m76 -80 c11 -21 14 -211 4 -248 -9 -32 -36 -38 -56
-13 -25 30 -26 224 -2 258 19 27 40 28 54 3z"></path>
        <path d="M5900 370 l0 -341 38 3 37 3 -4 245 c-2 135 -1 242 2 239 7 -6 33
-122 47 -204 17 -105 39 -221 48 -250 8 -29 11 -30 63 -30 l54 0 0 335 0 335
-39 0 -40 0 3 -217 c2 -133 -1 -218 -7 -218 -5 0 -12 15 -15 32 -3 18 -11 60
-17 93 -6 33 -18 98 -26 145 -8 47 -17 103 -22 125 l-7 40 -58 3 -57 3 0 -341z"></path>
        <path d="M6705 676 c-28 -18 -70 -44 -95 -58 -53 -29 -58 -43 -27 -82 l23 -28
59 41 c32 22 64 41 72 41 10 0 13 -46 13 -235 l0 -234 -82 -3 -83 -3 0 -40 0
-40 205 0 c190 0 205 1 208 18 2 10 1 29 -2 42 -6 22 -12 24 -74 27 l-67 3 -2
290 -1 290 -49 2 c-40 2 -57 -3 -98 -31z"></path>
        <path d="M38 553 l-38 -4 0 -260 0 -259 255 0 255 0 0 263 0 263 -47 -1 -48
-1 -1 -215 -2 -214 -56 -3 -56 -3 0 222 c0 198 -2 220 -16 215 -9 -3 -29 -6
-45 -6 l-29 0 0 -215 0 -215 -55 0 -55 0 -2 217 c-2 134 -7 217 -13 218 -5 1
-27 0 -47 -2z"></path>
        <path d="M720 550 c-8 -5 -25 -10 -37 -10 -30 0 -35 -12 -22 -50 11 -29 15
-31 43 -26 17 3 61 9 98 12 65 6 68 6 98 -25 25 -24 31 -38 28 -63 l-3 -33
-93 -7 c-108 -8 -162 -32 -199 -87 -50 -73 -19 -187 60 -225 65 -30 178 -15
229 31 17 15 20 15 46 -10 15 -14 39 -29 53 -32 23 -6 29 -2 43 26 16 31 15
33 -6 56 -20 22 -22 35 -26 191 -4 159 -5 169 -29 200 -13 18 -40 39 -60 47
-40 17 -199 21 -223 5z m205 -335 c0 -68 -1 -70 -34 -92 -24 -16 -49 -23 -82
-23 -40 0 -51 4 -69 27 -17 22 -21 37 -17 67 3 21 12 45 20 54 18 18 111 41
152 39 l30 -2 0 -70z"></path>
        <path d="M1184 545 c-3 -6 -3 -123 -2 -260 l3 -250 253 -3 252 -2 2 250 c0
137 1 255 2 262 1 8 -16 12 -48 12 l-48 0 1 -217 2 -217 -55 0 -56 0 -2 217
-3 218 -44 0 -44 0 -1 -215 -1 -215 -58 -3 -58 -3 2 217 1 218 -47 1 c-26 0
-49 -4 -51 -10z"></path>
        <path d="M1874 549 c-2 -4 -6 -60 -10 -125 -8 -169 -27 -260 -65 -307 l-30
-37 21 -30 c12 -17 25 -30 30 -30 16 0 80 62 96 91 20 40 44 172 44 246 0 34
4 73 10 87 9 25 13 26 85 26 53 0 75 -4 76 -12 0 -7 1 -105 2 -218 l2 -205 55
0 55 0 0 258 0 258 -183 2 c-101 1 -186 -1 -188 -4z"></path>
        <path d="M2380 553 c-1 -2 -1 -119 -1 -260 l-1 -258 94 -2 c115 -3 189 22 225
76 31 45 32 150 3 198 -27 44 -101 77 -195 85 l-30 3 -1 79 0 80 -47 1 c-26 0
-47 -1 -47 -2z m185 -247 c41 -18 55 -42 55 -98 -1 -55 -17 -76 -72 -93 -70
-21 -78 -11 -78 99 0 51 3 96 7 99 11 11 52 8 88 -7z"></path>
        <path d="M2774 545 c-3 -6 -3 -123 -2 -260 l3 -250 48 -3 47 -3 0 263 0 263
-46 0 c-26 0 -48 -5 -50 -10z"></path>
        <path d="M2994 551 c-2 -2 -4 -60 -4 -128 0 -133 7 -158 54 -203 38 -35 135
-40 201 -11 26 12 52 21 57 21 6 0 8 -40 7 -97 l-3 -98 53 0 52 0 0 260 0 259
-53 0 -53 0 4 -112 c3 -125 0 -134 -57 -158 -51 -21 -105 -18 -128 7 -16 17
-20 42 -24 142 l-5 121 -48 1 c-26 0 -50 -1 -53 -4z"></path>
        <path d="M3604 545 c-3 -6 -3 -123 -2 -260 l3 -250 50 0 50 0 -3 101 c-3 70 0
104 8 109 6 4 53 8 103 9 l92 1 1 -110 1 -110 52 0 53 0 0 260 -1 260 -52 -1
-52 0 -1 -105 -1 -104 -100 0 -100 0 0 105 0 104 -49 1 c-27 0 -50 -5 -52 -10z"></path>
        <path d="M4270 550 c-8 -5 -25 -10 -37 -10 -30 0 -35 -12 -22 -50 11 -29 14
-31 43 -25 17 3 60 8 97 12 60 5 67 3 97 -22 26 -21 32 -34 32 -64 l0 -38 -95
-6 c-79 -4 -103 -10 -141 -32 -58 -34 -84 -76 -84 -136 0 -89 54 -148 141
-157 65 -6 110 4 154 34 37 25 38 25 59 6 30 -28 65 -44 81 -39 7 3 17 19 23
35 9 26 7 33 -9 48 -17 15 -19 32 -19 163 0 80 -4 161 -10 180 -12 43 -45 79
-89 97 -38 16 -198 19 -221 4z m205 -335 c0 -68 -1 -70 -34 -92 -40 -27 -106
-31 -138 -8 -40 28 -34 120 10 144 27 14 104 30 137 28 24 -2 25 -4 25 -72z"></path>
        <path d="M5023 550 c-130 -6 -145 -9 -181 -32 -91 -61 -97 -188 -12 -248 l31
-22 -22 -36 c-12 -21 -31 -53 -41 -72 -11 -19 -28 -49 -39 -66 -10 -17 -16
-34 -12 -37 3 -4 29 -7 58 -7 l51 0 50 98 51 97 59 0 59 0 3 -98 3 -98 52 3
52 3 0 259 c0 165 -4 260 -10 261 -5 1 -74 -1 -152 -5z m52 -160 l0 -85 -66
-3 c-54 -2 -70 1 -92 18 -23 18 -27 29 -27 70 0 58 14 72 84 81 104 13 101 16
101 -81z"></path>
        <path d="M6214 106 c-3 -8 -4 -27 -2 -43 l3 -28 120 0 120 0 0 40 0 40 -118 3
c-95 2 -118 0 -123 -12z"></path>
    </g>
</svg>
